<svg width="19" height="15" viewBox="0 0 19 15" fill="none" xmlns="http://www.w3.org/2000/svg">
<path d="M0.00200196 0C0.27727 0 0.477464 0 0.677659 0C5.68253 0 10.6874 0 15.6923 0C17.2563 0 18.0195 0.764092 18.0195 2.35491C18.0195 3.20668 18.032 4.07098 18.0195 4.92276C18.007 6.17537 17.1812 7.00209 15.9425 7.01461C15.3169 7.02714 14.7038 7.01461 14.0281 7.01461C14.0281 7.99165 14.0281 8.89353 14.0281 9.80793C14.0156 12.3132 12.3265 14.0167 9.83656 14.0292C7.95974 14.0292 6.08291 14.0418 4.20609 14.0292C1.74119 14.0167 0.0270263 12.3257 0.0270263 9.87056C-0.0105102 6.60125 0.00200196 3.35699 0.00200196 0ZM14.0657 2.0167C14.0657 2.99374 14.0657 3.9833 14.0657 4.97286C14.7163 4.97286 15.3419 4.97286 15.9675 4.97286C15.9675 3.97077 15.9675 2.99374 15.9675 2.0167C15.3169 2.0167 14.7163 2.0167 14.0657 2.0167Z" fill="#E5E5E5"/>
</svg>
